<svg width="400" height="400" viewBox="0 0 400 400" fill="none" xmlns="http://www.w3.org/2000/svg">
<path d="M111.111 379.617C111.111 378.818 112.002 378.342 112.666 378.785L141.701 398.168C142.523 398.717 142.135 400 141.145 400H112.111C111.559 400 111.111 399.552 111.111 399V379.617Z" fill="#6002EE"/>
<path d="M0 400H87.8889C88.4412 400 88.8889 399.552 88.8889 399V356.494C88.8889 355.941 89.3366 355.494 89.8889 355.494H176.778C177.33 355.494 177.778 355.046 177.778 354.494V267.481C177.778 266.929 178.225 266.481 178.778 266.481H265.667C266.219 266.481 266.667 266.034 266.667 265.481V178.469C266.667 177.916 267.114 177.469 267.667 177.469H354.556C355.108 177.469 355.556 177.021 355.556 176.469V89.4562C355.556 88.9039 356.003 88.4562 356.556 88.4562H400V1C400 0.447715 399.539 -6.62468e-05 398.987 0.000732248C141.894 0.372437 0 142.247 0 400Z" fill="#6002EE"/>
<path fill-rule="evenodd" clip-rule="evenodd" d="M111.111 379.617C111.111 378.818 112.002 378.342 112.666 378.785L141.701 398.168C142.523 398.717 142.135 400 141.145 400H112.111C111.559 400 111.111 399.552 111.111 399V379.617Z" fill="#6002EE"/>
<path d="M266.667 400H377.778L201.531 289.692C200.865 289.275 200 289.754 200 290.54V354.959C200 355.293 200.167 355.605 200.445 355.791L266.667 400Z" fill="#6002EE"/>
<path d="M290.444 200.76C289.78 200.316 288.889 200.793 288.889 201.592V265.946C288.889 266.281 289.056 266.593 289.334 266.778L400 340.658V273.899L290.444 200.76Z" fill="#6002EE"/>
<path d="M400 124.083C400 123.725 399.809 123.395 399.499 123.216L379.277 111.572C378.61 111.189 377.778 111.67 377.778 112.439V176.903C377.778 177.254 377.962 177.579 378.263 177.76L400 190.821V124.083Z" fill="#6002EE"/>
</svg>
