<svg width="125" height="31" viewBox="0 0 125 31" fill="none" xmlns="http://www.w3.org/2000/svg">
    <path d="M8.33333 28.3594L10.8333 30.03H8.33333V28.3594Z" fill="#BBF077"/>
    <path d="M0 30.03H6.66667V26.6887H13.3333V20.0061H20V13.3235H26.6667V6.64085H30V0C10.67 0 0 10.6538 0 30.03Z" fill="#BBF077"/>
    <path fill-rule="evenodd" clip-rule="evenodd" d="M8.33333 28.3594L10.8333 30.03H8.33333V28.3594Z" fill="#BBF077"/>
    <path d="M20 30.03H28.3333L15 21.6768V26.6887L20 30.03Z" fill="#BBF077"/>
    <path d="M21.6667 14.9941V20.0061L30 25.5749V20.563L21.6667 14.9941Z" fill="#BBF077"/>
    <path d="M30 9.27214L28.3333 8.31151V13.3235L30 14.3259V9.27214Z" fill="#BBF077"/>
    <path d="M48.381 24.2619C47 24.2619 45.7778 23.9683 44.7143 23.381C43.6667 22.7937 42.8413 21.9841 42.2381 20.9524C41.6508 19.9048 41.3571 18.7143 41.3571 17.381V7.19047H45.119V17.5952C45.119 18.2619 45.2619 18.8413 45.5476 19.3333C45.8333 19.8254 46.2222 20.2063 46.7143 20.4762C47.2222 20.7302 47.7778 20.8571 48.381 20.8571C49.0159 20.8571 49.5714 20.7302 50.0476 20.4762C50.5238 20.2063 50.8968 19.8333 51.1667 19.3571C51.4524 18.8651 51.5952 18.2857 51.5952 17.619V7.19047H55.3571V17.4048C55.3571 18.7381 55.0635 19.9206 54.4762 20.9524C53.8889 21.9841 53.0714 22.7937 52.0238 23.381C50.9762 23.9683 49.7619 24.2619 48.381 24.2619ZM64.6702 24.2381C63.8924 24.2381 63.1781 24.0873 62.5273 23.7857C61.8766 23.4841 61.3448 23.0714 60.9321 22.5476C60.5194 22.0079 60.2813 21.3968 60.2178 20.7143V15.8333C60.2813 15.1508 60.5194 14.5317 60.9321 13.9762C61.3448 13.4206 61.8766 12.9841 62.5273 12.6667C63.1781 12.3492 63.8924 12.1905 64.6702 12.1905C65.7654 12.1905 66.7337 12.4524 67.575 12.9762C68.4321 13.5 69.0988 14.2143 69.575 15.119C70.067 16.0238 70.3131 17.0556 70.3131 18.2143C70.3131 19.373 70.067 20.4048 69.575 21.3095C69.0988 22.2143 68.4321 22.9286 67.575 23.4524C66.7337 23.9762 65.7654 24.2381 64.6702 24.2381ZM64.0035 20.9524C64.5273 20.9524 64.9797 20.8333 65.3607 20.5952C65.7575 20.3571 66.067 20.0317 66.2893 19.619C66.5115 19.2063 66.6226 18.7381 66.6226 18.2143C66.6226 17.6746 66.5115 17.1984 66.2893 16.7857C66.067 16.373 65.7575 16.0556 65.3607 15.8333C64.9797 15.5952 64.5353 15.4762 64.0273 15.4762C63.5194 15.4762 63.067 15.5952 62.6702 15.8333C62.2893 16.0556 61.9877 16.373 61.7654 16.7857C61.5432 17.1984 61.4321 17.6746 61.4321 18.2143C61.4321 18.7381 61.5353 19.2063 61.7416 19.619C61.9639 20.0317 62.2734 20.3571 62.6702 20.5952C63.067 20.8333 63.5115 20.9524 64.0035 20.9524ZM58.0035 28.881V12.4286H61.6464V15.4048L61.0512 18.2143L61.5988 21.0238V28.881H58.0035ZM72.497 24V7.19047H76.2351V24H72.497ZM75.3542 17.4048V14.1905H83.7589V17.4048H75.3542ZM75.3542 10.4048V7.19047H84.1399V10.4048H75.3542ZM91.407 24.2619C90.2165 24.2619 89.1372 24 88.1689 23.4762C87.2165 22.9365 86.4625 22.2063 85.907 21.2857C85.3514 20.3651 85.0737 19.3333 85.0737 18.1905C85.0737 17.0476 85.3514 16.0238 85.907 15.119C86.4625 14.2143 87.2165 13.5 88.1689 12.9762C89.1213 12.4365 90.2006 12.1667 91.407 12.1667C92.6133 12.1667 93.6927 12.4286 94.6451 12.9524C95.5975 13.4762 96.3514 14.1984 96.907 15.119C97.4626 16.0238 97.7403 17.0476 97.7403 18.1905C97.7403 19.3333 97.4626 20.3651 96.907 21.2857C96.3514 22.2063 95.5975 22.9365 94.6451 23.4762C93.6927 24 92.6133 24.2619 91.407 24.2619ZM91.407 20.9524C91.9308 20.9524 92.3911 20.8413 92.7879 20.619C93.1848 20.381 93.4864 20.0556 93.6927 19.6429C93.9149 19.2143 94.026 18.7302 94.026 18.1905C94.026 17.6508 93.9149 17.1825 93.6927 16.7857C93.4705 16.373 93.161 16.0556 92.7641 15.8333C92.3832 15.5952 91.9308 15.4762 91.407 15.4762C90.8991 15.4762 90.4467 15.5952 90.0499 15.8333C89.653 16.0556 89.3435 16.373 89.1213 16.7857C88.8991 17.1984 88.7879 17.6746 88.7879 18.2143C88.7879 18.7381 88.8991 19.2143 89.1213 19.6429C89.3435 20.0556 89.653 20.381 90.0499 20.619C90.4467 20.8413 90.8991 20.9524 91.407 20.9524ZM99.5539 24V6.71428H103.197V24H99.5539ZM105.762 24V12.4286H109.405V24H105.762ZM107.595 10.8333C107.024 10.8333 106.548 10.6429 106.167 10.2619C105.802 9.86508 105.619 9.38889 105.619 8.83333C105.619 8.2619 105.802 7.78571 106.167 7.40476C106.548 7.02381 107.024 6.83333 107.595 6.83333C108.167 6.83333 108.635 7.02381 109 7.40476C109.365 7.78571 109.548 8.2619 109.548 8.83333C109.548 9.38889 109.365 9.86508 109 10.2619C108.635 10.6429 108.167 10.8333 107.595 10.8333ZM117.542 24.2619C116.351 24.2619 115.272 24 114.304 23.4762C113.351 22.9365 112.597 22.2063 112.042 21.2857C111.486 20.3651 111.208 19.3333 111.208 18.1905C111.208 17.0476 111.486 16.0238 112.042 15.119C112.597 14.2143 113.351 13.5 114.304 12.9762C115.256 12.4365 116.335 12.1667 117.542 12.1667C118.748 12.1667 119.827 12.4286 120.78 12.9524C121.732 13.4762 122.486 14.1984 123.042 15.119C123.597 16.0238 123.875 17.0476 123.875 18.1905C123.875 19.3333 123.597 20.3651 123.042 21.2857C122.486 22.2063 121.732 22.9365 120.78 23.4762C119.827 24 118.748 24.2619 117.542 24.2619ZM117.542 20.9524C118.065 20.9524 118.526 20.8413 118.923 20.619C119.319 20.381 119.621 20.0556 119.827 19.6429C120.05 19.2143 120.161 18.7302 120.161 18.1905C120.161 17.6508 120.05 17.1825 119.827 16.7857C119.605 16.373 119.296 16.0556 118.899 15.8333C118.518 15.5952 118.065 15.4762 117.542 15.4762C117.034 15.4762 116.581 15.5952 116.185 15.8333C115.788 16.0556 115.478 16.373 115.256 16.7857C115.034 17.1984 114.923 17.6746 114.923 18.2143C114.923 18.7381 115.034 19.2143 115.256 19.6429C115.478 20.0556 115.788 20.381 116.185 20.619C116.581 20.8413 117.034 20.9524 117.542 20.9524Z" fill="#212121"/>
</svg>
