<svg width="546" height="126" viewBox="0 0 546 126" fill="none" xmlns="http://www.w3.org/2000/svg">
<path d="M35 118.99L45.5 126H35V118.99Z" fill="#6002EE"/>
<path d="M0 126H28V111.981H56V83.9416H84V55.9026H112V27.8637H126V0C44.8141 0 0 44.7012 0 126Z" fill="#6002EE"/>
<path fill-rule="evenodd" clip-rule="evenodd" d="M35 118.99L45.5 126H35V118.99Z" fill="#6002EE"/>
<path d="M84 126H119L63 90.9513V111.981L84 126Z" fill="#6002EE"/>
<path d="M91 62.9124V83.9416L126 107.307V86.2782L91 62.9124Z" fill="#6002EE"/>
<path d="M126 38.904L119 34.8734V55.9026L126 60.1085V38.904Z" fill="#6002EE"/>
<path d="M202.3 95C196.3 95 191.033 94.0333 186.5 92.1C182.033 90.1 178.567 87.0667 176.1 83C173.633 78.8667 172.4 73.6333 172.4 67.3V26.5C172.4 25.7667 172.633 25.1667 173.1 24.7C173.567 24.2333 174.167 24 174.9 24H187.8C188.533 24 189.133 24.2333 189.6 24.7C190.067 25.1667 190.3 25.7667 190.3 26.5V67.2C190.3 71.5333 191.333 74.8 193.4 77C195.533 79.1333 198.5 80.2 202.3 80.2C206.033 80.2 208.933 79.1333 211 77C213.133 74.8 214.2 71.5333 214.2 67.2V26.5C214.2 25.7667 214.433 25.1667 214.9 24.7C215.433 24.2333 216.033 24 216.7 24H229.7C230.367 24 230.933 24.2333 231.4 24.7C231.933 25.1667 232.2 25.7667 232.2 26.5V67.3C232.2 73.6333 230.967 78.8667 228.5 83C226.033 87.0667 222.567 90.1 218.1 92.1C213.633 94.0333 208.367 95 202.3 95ZM246.861 113C246.128 113 245.528 112.767 245.061 112.3C244.594 111.833 244.361 111.233 244.361 110.5V44.5C244.361 43.7667 244.594 43.1667 245.061 42.7C245.528 42.2333 246.128 42 246.861 42H258.161C258.828 42 259.394 42.2333 259.861 42.7C260.394 43.1667 260.661 43.7667 260.661 44.5V48.2C262.194 46.1333 264.228 44.4333 266.761 43.1C269.294 41.7 272.428 41 276.161 41C279.494 41 282.428 41.5333 284.961 42.6C287.494 43.6 289.661 45.1 291.461 47.1C293.261 49.1 294.661 51.5333 295.661 54.4C296.728 57.2667 297.328 60.5667 297.461 64.3C297.528 65.6333 297.561 66.8667 297.561 68C297.561 69.1333 297.528 70.3667 297.461 71.7C297.328 75.3 296.761 78.5333 295.761 81.4C294.761 84.2667 293.361 86.7 291.561 88.7C289.761 90.7 287.561 92.2667 284.961 93.4C282.428 94.4667 279.494 95 276.161 95C272.894 95 270.028 94.4333 267.561 93.3C265.161 92.1 263.161 90.4333 261.561 88.3V110.5C261.561 111.233 261.328 111.833 260.861 112.3C260.394 112.767 259.794 113 259.061 113H246.861ZM270.761 81.6C273.028 81.6 274.794 81.1333 276.061 80.2C277.328 79.2667 278.228 78 278.761 76.4C279.361 74.8 279.728 73.0333 279.861 71.1C279.994 69.0333 279.994 66.9667 279.861 64.9C279.728 62.9667 279.361 61.2 278.761 59.6C278.228 58 277.328 56.7333 276.061 55.8C274.794 54.8667 273.028 54.4 270.761 54.4C268.561 54.4 266.794 54.9 265.461 55.9C264.128 56.8333 263.161 58.0667 262.561 59.6C261.961 61.1333 261.628 62.8 261.561 64.6C261.494 65.8667 261.461 67.1 261.461 68.3C261.461 69.5 261.494 70.7667 261.561 72.1C261.628 73.7667 261.994 75.3333 262.661 76.8C263.328 78.2 264.328 79.3667 265.661 80.3C266.994 81.1667 268.694 81.6 270.761 81.6ZM311.047 94C310.314 94 309.714 93.7667 309.247 93.3C308.78 92.8333 308.547 92.2333 308.547 91.5V26.5C308.547 25.7667 308.78 25.1667 309.247 24.7C309.714 24.2333 310.314 24 311.047 24H356.947C357.68 24 358.28 24.2333 358.747 24.7C359.28 25.1667 359.547 25.7667 359.547 26.5V36.6C359.547 37.3333 359.28 37.9333 358.747 38.4C358.28 38.8667 357.68 39.1 356.947 39.1H326.147V53.8H354.947C355.68 53.8 356.28 54.0667 356.747 54.6C357.28 55.0667 357.547 55.6667 357.547 56.4V66.4C357.547 67.0667 357.28 67.6667 356.747 68.2C356.28 68.6667 355.68 68.9 354.947 68.9H326.147V91.5C326.147 92.2333 325.914 92.8333 325.447 93.3C324.98 93.7667 324.38 94 323.647 94H311.047ZM392.887 95C387.287 95 382.553 94.1 378.687 92.3C374.887 90.5 371.953 87.9333 369.887 84.6C367.887 81.2 366.753 77.1667 366.487 72.5C366.42 71.1667 366.387 69.6667 366.387 68C366.387 66.2667 366.42 64.7667 366.487 63.5C366.753 58.7667 367.953 54.7333 370.087 51.4C372.22 48.0667 375.187 45.5 378.987 43.7C382.853 41.9 387.487 41 392.887 41C398.353 41 402.987 41.9 406.787 43.7C410.653 45.5 413.653 48.0667 415.787 51.4C417.92 54.7333 419.12 58.7667 419.387 63.5C419.453 64.7667 419.487 66.2667 419.487 68C419.487 69.6667 419.453 71.1667 419.387 72.5C419.12 77.1667 417.953 81.2 415.887 84.6C413.887 87.9333 410.953 90.5 407.087 92.3C403.287 94.1 398.553 95 392.887 95ZM392.887 82.8C395.887 82.8 398.053 81.9 399.387 80.1C400.787 78.3 401.587 75.6 401.787 72C401.853 71 401.887 69.6667 401.887 68C401.887 66.3333 401.853 65 401.787 64C401.587 60.4667 400.787 57.8 399.387 56C398.053 54.1333 395.887 53.2 392.887 53.2C389.953 53.2 387.787 54.1333 386.387 56C384.987 57.8 384.22 60.4667 384.087 64C384.02 65 383.987 66.3333 383.987 68C383.987 69.6667 384.02 71 384.087 72C384.22 75.6 384.987 78.3 386.387 80.1C387.787 81.9 389.953 82.8 392.887 82.8ZM431.822 94C431.089 94 430.489 93.7667 430.022 93.3C429.555 92.8333 429.322 92.2333 429.322 91.5V25.5C429.322 24.7667 429.555 24.1667 430.022 23.7C430.489 23.2333 431.089 23 431.822 23H443.622C444.355 23 444.955 23.2333 445.422 23.7C445.889 24.1667 446.122 24.7667 446.122 25.5V91.5C446.122 92.2333 445.889 92.8333 445.422 93.3C444.955 93.7667 444.355 94 443.622 94H431.822ZM463.853 94C463.12 94 462.52 93.7667 462.053 93.3C461.586 92.8333 461.353 92.2333 461.353 91.5V44.5C461.353 43.7667 461.586 43.1667 462.053 42.7C462.52 42.2333 463.12 42 463.853 42H475.653C476.32 42 476.886 42.2333 477.353 42.7C477.886 43.1667 478.153 43.7667 478.153 44.5V91.5C478.153 92.2333 477.886 92.8333 477.353 93.3C476.886 93.7667 476.32 94 475.653 94H463.853ZM463.753 34.5C463.02 34.5 462.42 34.2667 461.953 33.8C461.486 33.3333 461.253 32.7333 461.253 32V23.1C461.253 22.3667 461.486 21.7667 461.953 21.3C462.42 20.7667 463.02 20.5 463.753 20.5H475.653C476.386 20.5 476.986 20.7667 477.453 21.3C477.986 21.7667 478.253 22.3667 478.253 23.1V32C478.253 32.7333 477.986 33.3333 477.453 33.8C476.986 34.2667 476.386 34.5 475.653 34.5H463.753ZM514.957 95C509.357 95 504.624 94.1 500.757 92.3C496.957 90.5 494.024 87.9333 491.957 84.6C489.957 81.2 488.824 77.1667 488.557 72.5C488.49 71.1667 488.457 69.6667 488.457 68C488.457 66.2667 488.49 64.7667 488.557 63.5C488.824 58.7667 490.024 54.7333 492.157 51.4C494.29 48.0667 497.257 45.5 501.057 43.7C504.924 41.9 509.557 41 514.957 41C520.424 41 525.057 41.9 528.857 43.7C532.724 45.5 535.724 48.0667 537.857 51.4C539.99 54.7333 541.19 58.7667 541.457 63.5C541.524 64.7667 541.557 66.2667 541.557 68C541.557 69.6667 541.524 71.1667 541.457 72.5C541.19 77.1667 540.024 81.2 537.957 84.6C535.957 87.9333 533.024 90.5 529.157 92.3C525.357 94.1 520.624 95 514.957 95ZM514.957 82.8C517.957 82.8 520.124 81.9 521.457 80.1C522.857 78.3 523.657 75.6 523.857 72C523.924 71 523.957 69.6667 523.957 68C523.957 66.3333 523.924 65 523.857 64C523.657 60.4667 522.857 57.8 521.457 56C520.124 54.1333 517.957 53.2 514.957 53.2C512.024 53.2 509.857 54.1333 508.457 56C507.057 57.8 506.29 60.4667 506.157 64C506.09 65 506.057 66.3333 506.057 68C506.057 69.6667 506.09 71 506.157 72C506.29 75.6 507.057 78.3 508.457 80.1C509.857 81.9 512.024 82.8 514.957 82.8Z" fill="#212121"/>
</svg>
