<svg width="15" height="15" viewBox="0 0 15 15" fill="none" xmlns="http://www.w3.org/2000/svg">
<path d="M7.5 15C11.6421 15 15 11.6421 15 7.5C15 3.35786 11.6421 0 7.5 0C3.35786 0 0 3.35786 0 7.5C0 11.6421 3.35786 15 7.5 15Z" fill="#212121"/>
<path d="M10.1888 6.19556C8.02252 6.19556 8.01972 8.35366 8.01972 8.36476C8.01972 8.36476 7.87131 10.5255 10.1888 10.5255C10.1888 10.5255 12.1215 10.6354 12.1215 9.02173H11.1291C11.1291 9.02173 11.1619 9.62924 10.2218 9.62924C10.2218 9.62924 9.22938 9.69529 9.22938 8.64779H12.1545C12.1545 8.64779 12.4762 6.19556 10.1888 6.19556ZM9.21829 7.89175C9.21829 7.89175 9.33928 7.023 10.2108 7.023C11.0851 7.023 11.0713 7.89175 11.0713 7.89175H9.21829ZM6.73879 7.33651C6.73879 7.33651 7.59925 7.27328 7.59925 6.26161C7.59925 5.25275 6.89548 4.75781 6.002 4.75781H3.06299V10.4072H6.00173C6.00173 10.4072 7.79698 10.4623 7.79698 8.73857C7.79698 8.73857 7.87412 7.33651 6.73879 7.33651ZM4.35795 5.76119H6.00186C6.00186 5.76119 6.40054 5.76119 6.40054 6.34945C6.40054 6.9377 6.16684 7.023 5.90012 7.023H4.35795V5.76119ZM5.91951 9.40383H4.35795V7.89175H6.00186C6.00186 7.89175 6.59854 7.88627 6.59573 8.66972C6.59573 9.32963 6.15321 9.39835 5.91951 9.40383ZM8.97363 5.09044V5.78606H11.305V5.09044H8.97363Z" fill="white"/>
</svg>
