<?xml version="1.0" encoding="utf-8"?>
<svg version="1.1" id="Слой_1" xmlns="http://www.w3.org/2000/svg" x="0px" y="0px"
	 viewBox="0 0 15 15" style="enable-background:new 0 0 15 15;" xml:space="preserve">
<style type="text/css">
	.st0{fill:#212121;}
	.st1{fill:#FFFFFF;}
</style>
<path class="st0" d="M7.5,15c4.1,0,7.5-3.4,7.5-7.5C15,3.4,11.6,0,7.5,0C3.4,0,0,3.4,0,7.5C0,11.6,3.4,15,7.5,15z"/>
<path class="st1" d="M7.5,2.7c-2.6,0-4.8,2.1-4.8,4.8s2.1,4.8,4.8,4.8c2.6,0,4.8-2.1,4.8-4.8C12.3,4.9,10.1,2.7,7.5,2.7z M10.6,5
	c0.5,0.7,0.9,1.5,0.9,2.5c-0.2,0-0.9-0.2-1.9-0.2c-0.3,0-0.6,0-0.9,0.1c0-0.1-0.1-0.1-0.1-0.2C8.6,6.9,8.5,6.7,8.4,6.6
	C9.8,6,10.5,5.2,10.6,5z M7.5,3.5c1,0,1.9,0.4,2.7,1C10,4.6,9.4,5.4,8.1,5.9C7.4,4.8,6.8,3.8,6.6,3.6C6.9,3.5,7.2,3.5,7.5,3.5z
	 M5.8,3.9C5.9,4.1,6.6,5,7.2,6.2C5.5,6.6,4,6.7,3.6,6.7h0C3.8,5.4,4.7,4.4,5.8,3.9z M3.5,7.5C3.5,7.5,3.5,7.4,3.5,7.5
	c0-0.1,0.1-0.1,0.1-0.1c0.5,0,2.2,0,4-0.6C7.7,7,7.8,7.3,7.9,7.5c0,0-0.1,0-0.1,0c-2,0.7-3.1,2.4-3.3,2.7C3.9,9.5,3.5,8.5,3.5,7.5z
	 M7.5,11.5c-0.9,0-1.8-0.3-2.5-0.8C5.2,10.5,6,9,8.2,8.2c0,0,0,0,0,0c0.6,1.4,0.8,2.6,0.9,3C8.6,11.4,8.1,11.5,7.5,11.5z M9.8,10.8
	C9.7,10.5,9.5,9.4,9,8c0.3,0,0.6-0.1,0.8-0.1c0.8,0,1.5,0.2,1.7,0.2C11.3,9.3,10.7,10.2,9.8,10.8z"/>
</svg>
