<?xml version="1.0" encoding="utf-8"?>
<svg version="1.1" id="Слой_1" xmlns="http://www.w3.org/2000/svg" x="0px" y="0px"
	 viewBox="0 0 16 14.6" style="enable-background:new 0 0 16 14.6;" xml:space="preserve">
<style type="text/css">
	.st0{fill-rule:evenodd;clip-rule:evenodd;fill:#202020;}
</style>
<path class="st0" d="M7.9,0C3.8,0,0.4,3.3,0.4,7.5c0,3.3,2.1,6.1,5.1,7.1C5.9,14.7,6,14.4,6,14.2s0-0.6,0-1.3c-2.1,0.5-2.5-1-2.5-1
	c-0.3-0.9-0.8-1.1-0.8-1.1c-0.7-0.5,0.1-0.5,0.1-0.5c0.8,0.1,1.1,0.8,1.1,0.8c0.7,1.1,1.8,0.8,2.2,0.6c0.1-0.5,0.3-0.8,0.5-1
	C4.9,10.5,3.2,9.9,3.2,7c0-0.8,0.3-1.5,0.8-2C3.9,4.8,3.7,4,4.1,3c0,0,0.6-0.2,2.1,0.8C6.7,3.6,7.3,3.6,8,3.5c0.6,0,1.3,0.1,1.9,0.3
	C11.3,2.8,12,3,12,3c0.4,1,0.2,1.8,0.1,2c0.5,0.5,0.8,1.2,0.8,2c0,2.9-1.8,3.5-3.4,3.7c0.3,0.2,0.5,0.7,0.5,1.4c0,1,0,1.8,0,2.1
	c0,0.2,0.1,0.4,0.5,0.4c3-1,5.1-3.8,5.1-7.1C15.4,3.3,12,0,7.9,0z"/>
</svg>
