<?xml version="1.0" encoding="utf-8"?>
<svg version="1.1" id="Слой_1" xmlns="http://www.w3.org/2000/svg" x="0px" y="0px"
	 viewBox="0 0 15 15" style="enable-background:new 0 0 15 15;" xml:space="preserve">
<style type="text/css">
	.st0{fill:#212121;}
	.st1{fill:#FFFFFF;}
</style>
<path class="st0" d="M15,7.5c0,4.1-3.4,7.5-7.5,7.5C3.4,15,0,11.6,0,7.5C0,3.4,3.4,0,7.5,0C11.6,0,15,3.4,15,7.5z"/>
<path class="st0" d="M6.1,10.9c-0.2,0-0.2-0.1-0.3-0.3L5.1,8.3l4.4-2.8l0.5,0.1L9.6,6.8L6.1,10.9z"/>
<path class="st1" d="M6.3,9l3,2.2c0.3,0.2,0.6,0.1,0.7-0.3l1.2-5.8c0.1-0.5-0.2-0.7-0.5-0.6L3.4,7.3C2.9,7.5,3,7.8,3.4,7.9l1.9,0.6
	l4.3-2.7c0.2-0.1,0.4-0.1,0.2,0.1L6.3,9z"/>
</svg>
