<svg xmlns="http://www.w3.org/2000/svg" xml:space="preserve" id="Слой_1" x="0" y="0" style="enable-background:new 0 0 417.4 417.4" version="1.1" viewBox="0 0 417.4 417.4"><style>.st1{fill:#bbf077}</style><path d="M0 0h417.4v417.4H0z" style="fill:#fff"/><path d="m119.8 386.5 33.3 22.3h-33.3v-22.3z" class="st1"/><path d="M8.7 408.7h88.9v-44.5h88.9v-89h88.9v-89h88.9v-89h44.4V8.7c-257.7 0-400 141.9-400 400z" class="st1"/><path d="m119.8 386.5 33.3 22.3h-33.3v-22.3z" style="fill-rule:evenodd;clip-rule:evenodd;fill:#bbf077"/><path d="M275.4 408.7h111.1L208.7 297.4v66.8l66.7 44.5zm22.2-200.3v66.8l111.1 74.2v-66.8l-111.1-74.2zm111.1-76.2-22.2-12.8v66.8l22.2 13.4v-67.4z" class="st1"/></svg>